<?xml version="1.0" encoding="UTF-8" standalone="no"?>
<svg width="98px" height="92px" viewBox="0 0 98 92" version="1.1" xmlns="http://www.w3.org/2000/svg" xmlns:xlink="http://www.w3.org/1999/xlink">
    <!-- Generator: Sketch 3.6.1 (26313) - http://www.bohemiancoding.com/sketch -->
    <title>Bar</title>
    <desc>Created with Sketch.</desc>
    <defs></defs>
    <g id="Page-1" stroke="none" stroke-width="1" fill="none" fill-rule="evenodd">
        <g id="Bar" fill="#000000">
            <path d="M3.1,41.3 C1.7,41.3 0.6,42.4 0.6,43.8 L0.6,89.3 C0.6,90.7 1.7,91.8 3.1,91.8 L25.3,91.8 C26.7,91.8 27.8,90.7 27.8,89.3 L27.8,43.8 C27.8,42.4 26.7,41.3 25.3,41.3 L3.1,41.3 L3.1,41.3 Z M22.8,86.8 L5.6,86.8 L5.6,46.3 L22.8,46.3 L22.8,86.8 L22.8,86.8 Z M37.9,91.8 L60.1,91.8 C61.5,91.8 62.6,90.7 62.6,89.3 L62.6,2.7 C62.6,1.3 61.5,0.2 60.1,0.2 L37.9,0.2 C36.5,0.2 35.4,1.3 35.4,2.7 L35.4,89.4 C35.4,90.7 36.5,91.8 37.9,91.8 L37.9,91.8 Z M40.4,5.2 L57.6,5.2 L57.6,86.9 L40.4,86.9 L40.4,5.2 L40.4,5.2 Z M72.7,91.8 L94.9,91.8 C96.3,91.8 97.4,90.7 97.4,89.3 L97.4,31 C97.4,29.6 96.3,28.5 94.9,28.5 L72.7,28.5 C71.3,28.5 70.2,29.6 70.2,31 L70.2,89.4 C70.2,90.7 71.3,91.8 72.7,91.8 L72.7,91.8 Z M75.2,33.5 L92.4,33.5 L92.4,86.9 L75.2,86.9 L75.2,33.5 L75.2,33.5 Z" id="Shape"></path>
        </g>
    </g>
</svg>